<svg width="49" height="48" viewBox="0 0 49 48" fill="none" xmlns="http://www.w3.org/2000/svg">
<path d="M48.229 24C48.229 37.2548 37.4838 48 24.229 48C10.9742 48 0.229004 37.2548 0.229004 24C0.229004 10.7452 10.9742 0 24.229 0C36.4631 0 46.5588 9.15431 48.0409 20.9868C48.1487 21.842 48.2114 22.7108 48.2251 23.5915C48.2281 23.7277 48.229 23.8639 48.229 24Z" fill="#006BC0"/>
<path d="M48.2253 23.5916C46.176 26.0876 42.1606 25.8927 42.1606 25.8927C39.6842 36.5614 24.7287 41.9913 14.3451 39.3238C3.96243 36.6573 5.39071 24.2733 5.39071 24.2733H35.7786C38.2864 24.2733 38.4774 23.5112 38.4774 23.5112C36.2547 18.24 39.6843 15.4139 39.6843 15.4139C42.3517 15.891 43.0178 20.4628 43.0178 20.4628C45.2072 20.0699 46.9655 20.5372 48.0411 20.9868C48.1489 21.842 48.2116 22.7109 48.2253 23.5916Z" fill="#F2F2F2"/>
<path d="M12.8842 19.4468H8.62891V23.3205H12.8842V19.4468Z" fill="#F2F2F2"/>
<path d="M18.2319 19.4468H13.9766V23.3205H18.2319V19.4468Z" fill="#F2F2F2"/>
<path d="M34.2729 19.4468H30.0176V23.3205H34.2729V19.4468Z" fill="#F2F2F2"/>
<path d="M28.9262 19.4468H24.6709V23.3205H28.9262V19.4468Z" fill="#F2F2F2"/>
<path d="M28.926 9.54028H24.6707V13.414H28.926V9.54028Z" fill="#F2F2F2"/>
<path d="M23.5786 19.4468H19.3232V23.3205H23.5786V19.4468Z" fill="#F2F2F2"/>
<path d="M18.2319 14.493H13.9766V18.3668H18.2319V14.493Z" fill="#F2F2F2"/>
<path d="M28.9262 14.493H24.6709V18.3668H28.9262V14.493Z" fill="#F2F2F2"/>
<path d="M23.5786 14.493H19.3232V18.3668H23.5786V14.493Z" fill="#F2F2F2"/>
</svg>
