<svg width="43" height="50" viewBox="0 0 43 50" fill="none" xmlns="http://www.w3.org/2000/svg">
<path d="M11.2212 49.9999C17.0172 49.9999 21.7213 46.2666 21.7213 41.6665V33.3331H11.2212C5.42521 33.3331 0.721191 37.0665 0.721191 41.6665C0.721191 46.2666 5.42521 49.9999 11.2212 49.9999Z" fill="#0ACF83"/>
<path d="M0.721191 24.9998C0.721191 20.3998 5.42521 16.6665 11.2212 16.6665H21.7213V33.3331H11.2212C5.42521 33.3331 0.721191 29.5998 0.721191 24.9998Z" fill="#A259FF"/>
<path d="M0.721191 8.33329C0.721191 3.73331 5.42521 0 11.2212 0H21.7213V16.6666H11.2212C5.42521 16.6666 0.721191 12.9333 0.721191 8.33329Z" fill="#F24E1E"/>
<path d="M21.7209 0H32.221C38.0171 0 42.7211 3.73331 42.7211 8.33329C42.7211 12.9333 38.0171 16.6666 32.221 16.6666H21.7209V0Z" fill="#FF7262"/>
<path d="M42.7211 24.9998C42.7211 29.5998 38.0171 33.3331 32.221 33.3331C26.425 33.3331 21.7209 29.5998 21.7209 24.9998C21.7209 20.3998 26.425 16.6665 32.221 16.6665C38.0171 16.6665 42.7211 20.3998 42.7211 24.9998Z" fill="#1ABCFE"/>
</svg>
