<svg width="90" height="171" viewBox="0 0 90 171" fill="none" xmlns="http://www.w3.org/2000/svg">
<rect x="2.13989" y="2.04663" width="85.8371" height="166.474" rx="8.5" stroke="#EBEBEB" stroke-width="3"/>
<rect x="21.9548" y="0.546631" width="46.2068" height="7.4577" rx="3.72885" fill="#EBEBEB"/>
<path fill-rule="evenodd" clip-rule="evenodd" d="M68.1573 4.11192C68.1541 4.08833 68.1525 4.06435 68.1525 4.04007C68.1525 3.68203 68.5032 3.39177 68.9359 3.39177C68.9441 3.39177 68.9522 3.39188 68.9603 3.39208V2.95581L67.3467 3.06338L67.2346 4.102L68.1573 4.11192Z" fill="#EBEBEB"/>
<path fill-rule="evenodd" clip-rule="evenodd" d="M21.9621 4.11192C21.9653 4.08833 21.9669 4.06435 21.9669 4.04007C21.9669 3.68203 21.6161 3.39177 21.1835 3.39177C21.1753 3.39177 21.1672 3.39188 21.1591 3.39208V2.95581L22.7727 3.06338L22.8848 4.102L21.9621 4.11192Z" fill="#EBEBEB"/>
</svg>
