<svg width="49" height="48" viewBox="0 0 49 48" fill="none" xmlns="http://www.w3.org/2000/svg">
<path d="M24.8857 0C11.6257 0 0.885742 11.019 0.885742 24.609C0.885742 35.484 7.76174 44.7061 17.2957 47.9575C18.4957 48.1892 18.9357 47.4275 18.9357 46.7743C18.9357 46.1899 18.9157 44.6414 18.9057 42.59C12.2297 44.0738 10.8217 39.2885 10.8217 39.2885C9.72974 36.4482 8.15174 35.6885 8.15174 35.6885C5.97774 34.163 8.31974 34.1943 8.31974 34.1943C10.7297 34.3654 11.9957 36.7299 11.9957 36.7299C14.1357 40.4926 17.6137 39.4053 18.9857 38.7772C19.2017 37.1848 19.8197 36.1017 20.5057 35.4861C15.1757 34.8704 9.57374 32.7543 9.57374 23.3256C9.57374 20.6397 10.5037 18.4442 12.0437 16.7225C11.7737 16.1006 10.9637 13.5984 12.2537 10.2092C12.2537 10.2092 14.2637 9.54977 18.8537 12.7323C20.7737 12.1856 22.8137 11.9143 24.8537 11.9017C26.8937 11.9143 28.9337 12.1856 30.8537 12.7323C35.4137 9.54977 37.4237 10.2092 37.4237 10.2092C38.7137 13.5984 37.9037 16.1006 37.6637 16.7225C39.1937 18.4442 40.1237 20.6397 40.1237 23.3256C40.1237 32.7793 34.5137 34.86 29.1737 35.4652C30.0137 36.204 30.7937 37.7128 30.7937 40.0189C30.7937 43.312 30.7637 45.9583 30.7637 46.7576C30.7637 47.4024 31.1837 48.1725 32.4137 47.9262C42.0157 44.6957 48.8857 35.4673 48.8857 24.609C48.8857 11.019 38.1397 0 24.8857 0Z" fill="#212121"/>
</svg>
