<svg width="53" height="48" viewBox="0 0 53 48" fill="none" xmlns="http://www.w3.org/2000/svg">
<path d="M26.5398 48L36.1196 18.468H16.9741L26.5398 48Z" fill="#E24329"/>
<path d="M3.55594 18.4681L0.638695 27.4403C0.374708 28.255 0.659795 29.1543 1.35657 29.6622L26.5398 48L3.55594 18.4681Z" fill="#FCA326"/>
<path d="M3.55591 18.4682H16.9739L11.1992 0.682453C10.9036 -0.227485 9.61558 -0.227485 9.30939 0.682453L3.55591 18.4682Z" fill="#E24329"/>
<path d="M49.5375 18.4683L52.4442 27.4404C52.7082 28.2551 52.4231 29.1544 51.7264 29.6623L26.5396 48.0001L49.5375 18.4683Z" fill="#FCA326"/>
<path d="M49.5376 18.4682H36.1196L41.8837 0.682453C42.1793 -0.227485 43.4673 -0.227485 43.7735 0.682453L49.5376 18.4682Z" fill="#E24329"/>
<path d="M26.5396 48.0001L36.1193 18.4683H49.5375L26.5396 48.0001Z" fill="#FC6D26"/>
<path d="M26.5396 48.0001L3.55591 18.4683H16.9739L26.5396 48.0001Z" fill="#FC6D26"/>
</svg>
