<svg width="49" height="50" viewBox="0 0 49 50" fill="none" xmlns="http://www.w3.org/2000/svg">
<path d="M0.284027 1.6552L3.84737 43.1704C3.90087 43.7938 4.36423 44.3254 5.0188 44.5144L23.7692 49.9282C24.1008 50.0239 24.4568 50.0239 24.7884 49.9282L43.5388 44.5144C44.1934 44.3254 44.6567 43.7938 44.7102 43.1704L48.2736 1.6552C48.3502 0.762644 47.5756 0 46.5926 0H1.9651C0.982103 0 0.207517 0.762644 0.284027 1.6552ZM39.1356 14.536H15.9126L16.6134 20.4216H38.6305L37.1902 37.2009L24.2789 40.9287L11.3675 37.2009L10.615 28.4347H17.3919V32.7346L24.46 34.4622L31.4857 32.7346L32.0308 25.8818H10.3959L8.95951 9.14655H39.5981L39.1356 14.536Z" fill="#FC490B"/>
</svg>
