<svg width="49" height="50" viewBox="0 0 49 50" fill="none" xmlns="http://www.w3.org/2000/svg">
<path d="M4.85788 44.9554L0.402344 0L48.4023 0.0171583L43.9842 44.9211L24.3649 50L4.85788 44.9554ZM40.3711 42.5017L44.0966 3.99794H24.4398L24.5896 46.4653L40.3711 42.5017ZM22.6052 9.6431H17.8314L17.7752 32.687L8.50843 30.3706L8.52715 35.6383L22.6052 39.1215V9.6431Z" fill="#D4B830"/>
<path opacity="0.986" d="M8.52702 35.6383L8.5083 30.3706C8.5083 30.3706 14.4241 31.8978 17.7751 32.687L17.8312 9.66028H22.605V39.1215L8.52702 35.6383Z" fill="#EBEBEB" fill-opacity="0.9216"/>
<path d="M24.4399 3.98083H44.0967L40.3713 42.4846L24.4399 46.4482V3.98083ZM39.3604 36.033L40.6521 21.637L31.1045 22.615V14.928L41.2886 14.8937L41.7005 9.64316L26.3307 9.71179L26.5367 28.8264L35.8222 27.3679L35.6911 31.6233L26.3307 33.9053L26.4243 39.1215L39.3604 36.033Z" fill="#FDD83C"/>
</svg>
