<svg width="49" height="48" viewBox="0 0 49 48" fill="none" xmlns="http://www.w3.org/2000/svg">
<path d="M48.4644 24C48.4644 37.2548 37.7192 48 24.4644 48C12.2351 48 2.14239 38.8536 0.654387 27.0279C0.529043 26.0365 0.464355 25.0256 0.464355 24C0.464355 22.1212 0.679887 20.2923 1.08836 18.5378C3.56082 7.91512 13.0884 0 24.4644 0C35.812 0 45.3208 7.87594 47.8208 18.4595C48.1489 19.8436 48.3556 21.2738 48.4311 22.7383C48.4536 23.1565 48.4644 23.5768 48.4644 24Z" fill="#F2F2F2"/>
<path d="M23.2638 25.9274V19.6875L17.8599 16.5676L12.4561 19.6875V25.9274L17.8599 29.0473L23.2638 25.9274Z" fill="#3B8739"/>
<path d="M44.546 24.9805L48.0677 27.0141L44.546 29.0477L39.1426 25.9277V19.6877L44.546 16.5677L47.8208 18.4593C48.149 19.8435 48.3557 21.2737 48.4311 22.7382L46.4288 23.8941V21.7204L44.546 20.6341L42.6633 21.7204V23.8941L44.546 24.9805Z" fill="#333333"/>
<path d="M45.5951 23.4132V22.2019L44.5461 21.5963L43.4971 22.2019V23.4132L44.5461 24.0189L45.5951 23.4132Z" fill="#66A060"/>
<path d="M9.90367 19.6878V27.9164L6.29973 25.8602V21.6422L4.50029 20.6027L2.70076 21.6421V25.8602L0.654387 27.0279C0.529043 26.0365 0.464355 25.0256 0.464355 24C0.464355 22.1211 0.679887 20.2922 1.08836 18.5377L4.50029 16.5677L9.90367 19.6878Z" fill="#333333"/>
<path d="M23.2632 25.9266L17.8594 16.5673L12.4558 19.6871L17.8596 29.0465L23.2632 25.9266Z" fill="#6DA75D"/>
<path d="M12.4561 25.9274L14.3116 22.9015L12.4561 19.6875V25.9274Z" fill="#55A344"/>
<path d="M21.4623 22.8073L23.2638 19.6875L17.8599 16.5676L21.4623 22.8073Z" fill="#639D57"/>
<path d="M32.9534 9.33557V17.6141L31.1422 16.5678L25.7378 19.6878V25.9278L31.1422 29.0478L36.5457 25.9278V11.2585L32.9534 9.33557ZM32.9436 23.8472L31.1421 24.8876L29.3406 23.8472V21.7676L31.1421 20.7272L32.9436 21.7676V23.8472Z" fill="#333333"/>
<path d="M26.9156 33.6298C26.9156 33.6298 26.8095 32.7177 25.8339 32.7177C24.8581 32.7177 24.1901 32.845 24.1901 33.3859C24.1901 33.9268 26.0885 33.9268 26.8097 34.1389C27.5309 34.351 28.1672 34.9025 27.849 35.8782C27.5308 36.854 26.5551 36.96 25.0491 36.96C23.5431 36.96 23.2036 35.7085 23.2036 35.2207H24.0521C24.0521 35.2207 23.9459 35.9843 24.9429 36.1115C25.9398 36.2387 26.893 36.3103 27.0216 35.5389C27.1913 34.5206 23.7974 35.0298 23.5004 34.0329C23.2496 33.1905 23.3943 32.0815 25.0913 31.9117C26.7882 31.7419 27.7215 32.4911 27.7215 33.6086L26.9156 33.6298Z" fill="#66A060"/>
<path d="M18.7198 37.6061L20.5956 38.689C21.538 39.2331 22.7161 38.5529 22.7161 37.4647V35.567V32.0745H21.9516V37.2521C21.9516 37.8463 21.3083 38.2179 20.7935 37.9206L19.4843 37.1648V31.6391L24.2695 28.8766L29.0548 31.6391V37.1648L24.2695 39.9273L22.891 39.1315L21.9909 39.4945L24.2694 40.8101L29.8193 37.6058V31.1979L24.2695 27.9938L18.7197 31.1981V37.6061H18.7198Z" fill="#66A060"/>
</svg>
