<svg width="61" height="48" viewBox="0 0 61 48" fill="none" xmlns="http://www.w3.org/2000/svg">
<path d="M59.1883 21.4676C59.1765 21.4772 57.2105 23.0989 57.2105 25.1048C57.2105 28.3618 55.0651 32.968 51.625 33.7188C50.38 37.3878 48.1696 38.4678 47.7409 39.9671C47.3355 41.3816 46.0513 43.5307 39.6047 45.8569C36.1107 47.1189 32.1727 47.9992 30.0273 47.9992C27.8819 47.9992 23.9439 47.1189 20.4499 45.8569C14.0033 43.5307 12.7191 41.3816 12.3137 39.9671C11.8861 38.4712 9.67344 37.3845 8.42957 33.7188C4.9895 32.968 2.84414 28.3618 2.84414 25.1048C2.84414 23.0989 0.878047 21.4772 0.858128 21.4608C0.0988745 20.8871 -0.171785 19.7874 0.176206 18.8157C1.67011 14.6368 5.73692 4.63143 9.50401 2.44079C12.1637 0.894059 15.7585 1.10801 18.485 1.62586C23.5363 -0.496501 36.3756 -0.556598 41.5696 1.62586C44.2961 1.10801 47.8909 0.895422 50.5494 2.44079C54.3046 4.62325 58.4014 14.6841 59.8784 18.8157C60.2264 19.7874 59.9463 20.8953 59.1883 21.4676Z" fill="#A07765"/>
<path d="M52.5229 27.2853C52.5229 36.5101 48.3362 37.8822 47.74 39.9672C47.3346 41.3817 46.0505 43.5308 39.6038 45.857C36.1098 47.1189 32.1718 47.9993 30.0264 47.9993C27.8811 47.9993 23.943 47.1189 20.4491 45.857C14.0024 43.5308 12.7183 41.3817 12.3129 39.9672C11.7046 37.8398 7.53003 36.5881 7.53003 27.2853C7.53003 17.9371 13.3888 5.2224 16.8004 2.57715C19.9522 0.142033 27.189 0.0301514 30.9638 0.0301514C34.1925 0.0301514 40.5462 0.478772 43.2501 2.57579C46.6891 5.24148 52.5229 17.9721 52.5229 27.2853Z" fill="#FFDFBA"/>
<path d="M52.0654 22.3099C51.1753 26.9562 48.1946 28.5716 47.7419 30.1553C47.3365 31.5698 46.0523 33.7189 39.6057 36.0451C36.1117 37.307 32.1737 38.1874 30.0283 38.1874C27.883 38.1874 23.9449 37.307 20.4509 36.0451C14.0043 33.7189 12.7201 31.5698 12.3147 30.1553C11.8557 28.55 8.88052 26.9518 7.99121 22.3099C9.34896 14.4544 13.7358 4.95486 16.8023 2.57712C21.3974 -0.97328 38.9734 -0.742428 43.252 2.57576C46.3323 4.96358 50.7111 14.4741 52.0654 22.3099Z" fill="#FFEBD2"/>
<path d="M41.1141 44.5351C40.902 45.0897 40.4931 45.5299 39.9728 45.7234C36.4273 47.0426 32.2456 47.9992 30.0287 47.9992C27.8119 47.9992 23.6301 47.0426 20.0846 45.7234C19.5644 45.5299 19.1555 45.0897 18.9434 44.5351C16.737 39.5482 13.9954 30.8584 17.4554 26.8342C20.025 23.838 22.17 20.3543 26.0286 19.7451C27.1098 19.5759 28.0909 20.512 28.1529 21.7866C28.2396 22.1272 28.9824 22.9245 30.0287 22.9245C31.0751 22.9245 31.8179 22.1272 31.9046 21.7866C31.9667 20.5095 32.9496 19.5763 34.0289 19.7451C37.8797 20.3531 40.0109 23.8128 42.6021 26.8342C46.0553 30.8505 43.3118 39.5678 41.1141 44.5351Z" fill="#A07765"/>
<path d="M35.651 21.8343C35.651 24.8227 32.8661 27.2854 30.0269 27.2854C27.148 27.2854 24.4028 24.7843 24.4028 21.8343C24.4028 19.7262 25.8803 17.4735 30.0269 17.4735C34.1735 17.4735 35.651 19.7262 35.651 21.8343Z" fill="#999999"/>
<path d="M17.3727 16.3833C15.5522 16.3833 14.0901 18.0985 14.0901 20.199C14.0901 22.3064 15.5589 24.0148 17.3708 24.0148C19.1913 24.0148 20.6534 22.2996 20.6534 20.199C20.6534 18.0917 19.1846 16.3833 17.3727 16.3833Z" fill="black"/>
<path d="M42.6801 24.0148C44.5006 24.0148 45.9627 22.2996 45.9627 20.199C45.9627 18.0917 44.4939 16.3833 42.682 16.3833C40.8616 16.3833 39.3994 18.0985 39.3994 20.199C39.3994 22.3064 40.8682 24.0148 42.6801 24.0148Z" fill="black"/>
<path d="M59.8782 18.8152C58.3817 14.6346 54.319 4.63253 50.5496 2.44054C47.9531 0.931416 44.4333 1.08241 41.569 1.62561C36.4118 -0.541726 23.5584 -0.507112 18.4835 1.62561C15.6183 1.08227 12.0989 0.931825 9.5029 2.44054C5.74799 4.62409 1.65587 14.6763 0.17439 18.8152C-0.159893 19.7484 0.075382 20.8719 0.864983 21.4681C0.875528 21.4767 2.84221 23.0989 2.84221 25.1049C2.84221 28.3624 4.98804 32.9676 8.42717 33.7185C9.67162 37.3828 11.8833 38.4718 12.312 39.9671C12.7173 41.3813 14.0016 43.5303 20.4479 45.8572C26.6475 48.095 30.2579 47.9994 30.0264 47.9994C32.6662 47.9994 36.9895 46.8014 39.605 45.8572C46.0512 43.5305 47.3355 41.3813 47.7408 39.9671C48.1694 38.4719 50.381 37.3833 51.6257 33.7185C55.0647 32.9677 57.2106 28.3624 57.2106 25.1049C57.2106 23.0987 59.1773 21.4767 59.1879 21.4681C59.9795 20.8702 60.2113 19.745 59.8782 18.8152ZM6.59348 25.1049C6.59348 22.3758 5.23995 20.2754 4.18098 19.0496C5.2819 16.2108 8.79661 7.72777 11.181 6.3413C11.9424 5.89881 13.0094 5.65474 14.2885 5.61209C10.8487 11.0323 7.35965 20.6411 7.53903 28.0347C6.96081 27.0942 6.59348 25.8961 6.59348 25.1049ZM31.7339 22.0885C30.8739 23.1955 29.1821 23.1999 28.3188 22.0885C29.1923 21.7482 30.8593 21.748 31.7339 22.0885ZM21.97 41.837C20.2036 37.6348 18.678 31.5766 20.1047 29.9172C22.0785 27.6217 23.4897 25.475 25.2062 24.5309C25.9192 25.6733 26.993 26.5141 28.1507 26.9438V29.746C25.8754 30.4458 23.9513 32.4991 22.8386 34.7856C22.6345 35.1346 22.5136 35.5546 22.5136 36.0086C22.5136 38.2964 25.1852 39.041 26.0667 36.9753C26.081 36.9836 26.0795 36.9787 26.0726 36.9944C26.073 36.9933 26.0751 36.9887 26.0787 36.9812C26.0914 36.9888 27.4706 33.8272 30.0263 33.8264C32.5422 33.8272 33.964 36.9626 33.9781 36.9944L33.9727 36.9819L33.9738 36.9812C33.9774 36.9887 33.9795 36.9933 33.9799 36.9944C33.973 36.9786 33.9715 36.9836 33.9858 36.9753C34.8671 39.0409 37.5389 38.2966 37.5389 36.0086C37.5389 35.5546 37.418 35.1346 37.2139 34.7856C36.0886 32.4733 34.1648 30.442 31.9018 29.746V26.9438C33.0589 26.5142 34.133 25.6737 34.8463 24.5309C36.5625 25.4749 37.9733 27.6208 39.9479 29.9172C41.3746 31.5766 39.849 37.6346 38.0826 41.837C34.687 43.0193 31.4654 43.6381 30.0263 43.6384C28.5872 43.6381 25.3656 43.0194 21.97 41.837ZM52.5136 28.0348C52.6946 20.5806 49.1513 10.9493 45.7642 5.61222C47.0433 5.65488 48.1104 5.89895 48.8717 6.34144C51.2561 7.72791 54.7708 16.2109 55.8717 19.0497C54.8128 20.2754 53.4592 22.3758 53.4592 25.105C53.4591 25.8961 53.0917 27.0942 52.5136 28.0348ZM40.4916 5.80969C40.582 5.86488 40.6758 5.91312 40.7734 5.95073C43.0903 7.21674 48.7724 18.9403 48.7724 27.2854C48.7724 35.2573 45.4617 34.2329 44.1954 38.5414C44.0894 38.7322 43.7178 39.1173 42.9334 39.6234C44.2026 35.5037 45.2612 29.9279 42.6011 26.8339C40.3254 24.1868 38.393 21.1418 35.2654 20.0569C33.8856 17.1145 29.6307 17.4737 30.0263 17.4737C28.0432 17.4737 25.7413 18.0222 24.7872 20.0569C21.6603 21.1417 19.7272 24.1869 17.4515 26.8339C14.7917 29.9275 15.8496 35.5024 17.1192 39.6234C16.3347 39.1173 15.9632 38.7322 15.8571 38.5414C14.5922 34.2374 11.2801 35.2521 11.2801 27.2854C11.2801 18.8854 16.9907 7.2012 19.279 5.95073C19.3766 5.91326 19.4703 5.86488 19.5608 5.80969C23.7088 3.89542 36.3949 3.91899 40.4916 5.80969Z" fill="black"/>
</svg>
