<svg width="49" height="48" viewBox="0 0 49 48" fill="none" xmlns="http://www.w3.org/2000/svg">
<path d="M48.5884 24.0001C48.5884 24.7417 48.5551 25.4744 48.4884 26.1984C48.4375 26.7715 48.365 27.3376 48.2729 27.897C46.4117 39.2984 36.5159 48.0001 24.5884 48.0001C18.5129 48.0001 12.9655 45.7432 8.7376 42.0207C7.17516 40.6463 5.79291 39.0711 4.63116 37.3353C2.07732 33.5217 0.588379 28.9344 0.588379 24.0001C0.588379 10.7453 11.3335 0.00012207 24.5884 0.00012207C37.8432 0.00012207 48.5884 10.7453 48.5884 24.0001Z" fill="#F2F2F2"/>
<path d="M42.4728 26.7166C41.7449 26.9918 41.7743 26.9967 41.3893 26.2954C40.8976 25.402 40.636 24.4626 40.6134 23.4409C40.5948 22.5641 40.8348 21.7492 41.1366 20.9497C41.3775 20.314 41.0641 20.0897 40.5135 20.0318C40.1128 19.9907 39.6995 19.9946 39.2978 20.0358C38.2536 20.1426 38.1507 20.2327 37.8735 21.2466C37.709 21.8481 37.5776 22.4544 37.3043 23.0255C36.6304 24.4312 35.8643 25.785 35.0787 27.129C34.9376 27.371 34.8211 27.6315 34.6222 27.8382C34.0531 26.9859 33.8386 26.0446 33.7906 25.0571C33.7426 24.0824 34.0414 23.1763 34.3695 22.28C34.4802 21.9783 34.3881 21.7912 34.1275 21.6608C34.0119 21.6031 33.8826 21.5492 33.7563 21.5393C33.0862 21.4865 32.4182 21.4942 31.7647 21.6774C31.4708 21.7587 31.2788 21.9233 31.2132 22.2534C31.0859 22.899 30.887 23.5259 30.6185 24.1294C29.8741 25.8006 29.1345 27.4747 28.391 29.1469C27.7445 30.5996 27.1077 32.0562 26.3417 33.4512C26.2878 33.5501 26.2428 33.7216 26.1076 33.6873C25.9704 33.653 26.0184 33.4845 26.0125 33.3689C25.9685 32.5461 26.1928 31.7614 26.3838 30.9757C26.6865 29.7326 27.0175 28.4954 27.3389 27.2562C27.431 26.9006 27.2762 26.6616 26.9813 26.4911C26.5572 26.2472 26.135 26.2355 25.6756 26.5773C25.7383 26.0718 25.7657 25.6281 25.7441 25.1843C25.6952 24.195 25.2366 23.5514 24.4384 23.4024C23.8555 23.2937 23.304 23.4632 22.7828 23.71C21.5681 24.2851 20.5915 25.152 19.7705 26.2041C19.6745 26.3265 19.5776 26.4392 19.4385 26.5146C17.8976 27.3541 16.3577 28.1936 14.8207 29.0409C14.6523 29.135 14.5435 29.1085 14.422 28.9782C13.6481 28.1485 12.7499 27.4638 11.8604 26.7693C10.6173 25.7976 9.33111 24.8767 8.25842 23.7052C7.63152 23.0195 7.10839 22.2681 6.84683 21.361C6.41971 19.8779 6.73911 18.4967 7.4503 17.1841C8.2918 15.6314 9.5398 14.4324 10.916 13.3646C13.1015 11.6699 15.4985 10.3239 18.0249 9.21609C20.854 7.9769 23.7889 7.17853 26.9147 7.29899C28.1529 7.34699 29.3548 7.5615 30.4579 8.16787C31.2386 8.59696 31.7558 9.21703 31.9018 10.1271C32.0733 11.1928 31.8175 12.1774 31.3445 13.1109C30.2875 15.1965 28.6075 16.6737 26.6218 17.8306C24.9682 18.7935 23.1845 19.4048 21.2967 19.7251C20.2535 19.9024 19.2063 20.0092 18.1571 19.8495C16.9532 19.6663 15.8404 19.2637 15.0166 18.2939C14.9215 18.1822 14.801 18.1048 14.6394 18.1832C14.4739 18.2635 14.4866 18.4104 14.5023 18.5515C14.514 18.6485 14.5405 18.7464 14.5747 18.8386C14.7951 19.4332 15.2075 19.8818 15.6905 20.2737C16.9463 21.2954 18.4343 21.5952 19.9968 21.6256C21.5259 21.656 23.0315 21.462 24.5215 21.1055C27.8825 20.3022 30.6979 18.6535 32.753 15.8284C33.9815 14.1396 34.7593 12.2783 34.6907 10.1487C34.6466 8.79787 34.192 7.60471 33.2076 6.63496C32.0369 5.4839 30.5842 4.90499 29.0256 4.55728C27.2898 4.17131 25.5364 4.11646 23.7652 4.32806C22.2244 4.51218 20.7187 4.82765 19.2532 5.33212C17.0109 6.10499 14.8451 7.05421 12.7723 8.20818C10.6486 9.38953 8.64721 10.7424 6.89183 12.4371C5.33821 13.9368 4.00302 15.5914 3.25067 17.6455C2.92939 18.5252 2.69821 19.4294 2.91374 20.3806C3.19002 21.6051 3.79339 22.665 4.58689 23.6211C5.78689 25.0689 7.25924 26.2091 8.77761 27.2984C9.99721 28.1741 11.2736 28.9716 12.4452 29.9129C12.7773 30.1793 12.7753 30.1793 12.3845 30.3841C11.928 30.6221 11.4665 30.8513 11.018 31.105C9.20877 32.1278 7.46024 33.2367 6.03289 34.7777C5.33052 35.5369 4.85342 36.3892 4.63114 37.3354C5.79289 39.0712 7.17514 40.6464 8.73758 42.0207C11.4031 41.8131 13.4435 40.4259 14.9511 38.1318C15.679 37.0238 16.0199 35.77 16.1482 34.4475C16.2609 33.2818 16.1423 32.1532 15.7995 31.0404C15.7398 30.8445 15.5174 30.6496 15.6046 30.4772C15.6859 30.3185 15.9308 30.2381 16.111 30.1343C16.8379 29.7121 17.5667 29.2958 18.3151 28.8658C18.3474 29.0265 18.2847 29.1205 18.2573 29.2223C17.8282 30.7966 17.5295 32.3835 17.8557 34.0194C18.0585 35.0382 18.3965 35.9972 19.039 36.8407C19.7002 37.7086 21.1765 37.6096 21.776 36.8171C22.3451 36.0648 22.7223 35.2164 23.1151 34.372C23.3306 33.9097 23.5284 33.4395 23.7342 32.9722C23.696 33.5345 23.6979 34.083 23.7185 34.6297C23.7391 35.1684 23.8253 35.7004 24.1055 36.1764C24.4424 36.7485 25.0762 36.9151 25.665 36.6094C26.2861 36.2871 26.7093 35.7562 27.0383 35.1802C28.4499 32.7028 29.7596 30.1725 30.844 27.5305C31.0752 26.9692 31.3123 26.4089 31.5739 25.7849C31.614 25.9897 31.6405 26.115 31.665 26.2404C31.9059 27.4992 32.335 28.6904 32.9561 29.8101C33.0893 30.0501 33.0746 30.2156 32.9061 30.4458C32.3341 31.2246 31.7071 31.9573 31.089 32.6978C30.5698 33.3209 30.0143 33.9165 29.5755 34.6022C29.1817 35.2193 29.408 35.8511 30.0634 35.9913C30.2651 36.0344 30.4777 36.0472 30.6845 36.0442C31.8296 36.0305 32.8865 35.6886 33.8711 35.1282C35.1965 34.373 35.9822 33.266 35.9459 31.6898C35.9292 30.9727 35.7352 30.2842 35.4463 29.6268C35.3826 29.4808 35.3796 29.3751 35.4747 29.2379C36.3926 27.9232 37.2036 26.545 37.9491 25.1266C38.0814 24.8768 38.1744 24.5995 38.388 24.3557C38.4164 24.4546 38.4389 24.5164 38.4516 24.58C38.6887 25.7556 39.008 26.9046 39.6076 27.9537C39.7721 28.2408 39.6899 28.3867 39.4626 28.5787C38.6799 29.2438 38.0197 30.0196 37.5015 30.9082C37.0979 31.5997 36.8216 32.3383 36.8246 33.1485C36.8275 34.0497 37.5171 34.5806 38.3959 34.369C39.3118 34.1496 40.1611 33.7763 40.9232 33.219C42.5836 32.0033 43.0704 30.721 42.5503 28.9313C42.3466 28.227 42.3504 28.2388 43.0567 28.0252C44.6016 27.5589 46.1689 27.5393 47.744 27.796C47.9224 27.8254 48.0987 27.8587 48.273 27.8969C48.365 27.3376 48.4375 26.7713 48.4885 26.1982C46.4735 25.7057 44.4613 25.9613 42.4728 26.7166ZM9.8308 39.319C9.38314 39.4777 8.91786 39.5453 8.44171 39.5081C7.84902 39.4611 7.47289 39.0428 7.43464 38.4139C7.39152 37.689 7.60611 37.0346 7.92346 36.3979C8.50039 35.2419 9.46921 34.4573 10.4577 33.6874C11.4186 32.938 12.4512 32.2983 13.4954 31.6762C13.8118 31.4882 13.8167 31.4902 13.8891 31.8673C13.9832 32.3512 14.0675 32.8361 14.036 33.276C14.1185 35.9139 12.2024 38.4795 9.8308 39.319ZM24.2092 26.0171C24.0427 27.129 23.6793 28.1879 23.2924 29.2341C22.7653 30.6623 22.252 32.0974 21.5888 33.4708C21.437 33.7872 21.2773 34.1017 21.0315 34.3593C20.7994 34.6032 20.5936 34.5748 20.433 34.277C20.1195 33.6951 20.1587 33.0476 20.1078 32.5774C20.1225 30.2185 20.914 28.2907 22.2178 26.5578C22.5822 26.0749 23.0475 25.6821 23.6637 25.5243C24.0819 25.4177 24.2749 25.5862 24.2092 26.0171ZM33.3391 33.0007C32.8924 33.7726 32.2488 34.3339 31.4592 34.7335C31.3749 34.7756 31.2663 34.8501 31.1899 34.7512C31.1174 34.6581 31.2339 34.5964 31.2868 34.5376C32.0715 33.6804 32.8463 32.8164 33.5448 31.8868C33.5555 31.8721 33.582 31.8701 33.6417 31.8447C33.6349 32.2748 33.5408 32.6529 33.3391 33.0007ZM38.7572 32.9674C38.6406 33.0222 38.5055 33.1251 38.3918 33.0369C38.2665 32.94 38.3164 32.7685 38.3546 32.6373C38.5329 32.0388 38.7729 31.4657 39.104 30.9318C39.3821 30.4822 39.727 30.0893 40.106 29.723C40.2589 29.5761 40.3274 29.5937 40.3793 29.8053C40.4332 30.0217 40.4381 30.2382 40.442 30.4586C40.4323 31.6645 39.82 32.4668 38.7572 32.9674Z" fill="#CD6699"/>
</svg>
