<svg width="58" height="57" viewBox="0 0 58 57" fill="none" xmlns="http://www.w3.org/2000/svg">
<path d="M53.6562 9.8276H4.34377C1.9447 9.8276 0 11.7388 0 14.0965V22.2759H58V14.0965C58 11.7388 56.0553 9.8276 53.6562 9.8276Z" fill="#FFE15A"/>
<path d="M0 42.9035C0 45.2611 1.9447 47.1724 4.34377 47.1724H53.6562C56.0552 47.1724 58 45.2612 58 42.9035V34.7241H0V42.9035Z" fill="#FF4B55"/>
<path d="M58 22.2756H0V34.7232H58V22.2756Z" fill="#41479B"/>
<path d="M20.1798 30.8932L20.4304 31.6317L21.2224 31.6377C21.3249 31.6385 21.3675 31.767 21.285 31.8269L20.6479 32.2893L20.8868 33.0315C20.9178 33.1276 20.8064 33.2071 20.7229 33.1484L20.0786 32.6957L19.4342 33.1484C19.3509 33.207 19.2395 33.1275 19.2703 33.0315L19.5092 32.2893L18.8721 31.8269C18.7897 31.7672 18.8321 31.6385 18.9348 31.6377L19.7269 31.6317L19.9775 30.8932C20.0098 30.7977 20.1474 30.7977 20.1798 30.8932Z" fill="#F5F5F5"/>
<path d="M21.7185 28.5426L21.5843 29.3098L22.2794 29.683C22.3693 29.7313 22.345 29.8644 22.2435 29.8788L21.4596 29.9903L21.3132 30.7554C21.2942 30.8544 21.158 30.8728 21.1126 30.7824L20.7623 30.0842L19.9767 30.1838C19.875 30.1967 19.8151 30.075 19.8886 30.0047L20.4561 29.4616L20.117 28.7582C20.0731 28.6671 20.1724 28.5735 20.2631 28.6205L20.964 28.983L21.54 28.4487C21.6147 28.3793 21.7359 28.4432 21.7185 28.5426Z" fill="#F5F5F5"/>
<path d="M23.6659 26.4852L23.2941 27.1725L23.8355 27.7406C23.9056 27.8142 23.8401 27.9331 23.7391 27.9155L22.9589 27.7805L22.5763 28.4622C22.5268 28.5503 22.3915 28.5259 22.3772 28.4262L22.2669 27.6554L21.489 27.5084C21.3883 27.4894 21.3701 27.3553 21.4623 27.3111L22.1742 26.9698L22.076 26.1974C22.0632 26.0974 22.1873 26.0391 22.2586 26.1116L22.8088 26.6713L23.5259 26.3409C23.6191 26.2983 23.7139 26.3961 23.6659 26.4852Z" fill="#F5F5F5"/>
<path d="M26.0089 25.2087L25.4624 25.7722L25.8281 26.4627C25.8755 26.5521 25.7797 26.6493 25.6872 26.6056L24.9731 26.2689L24.4178 26.824C24.3459 26.8959 24.2222 26.8363 24.2358 26.7365L24.341 25.9648L23.6322 25.6173C23.5404 25.5723 23.5596 25.4384 23.6605 25.4202L24.4396 25.2801L24.5569 24.5102C24.572 24.4106 24.7076 24.3872 24.7564 24.4759L25.1327 25.1608L25.914 25.0326C26.0153 25.0162 26.0796 25.1358 26.0089 25.2087Z" fill="#F5F5F5"/>
<path d="M28.7024 24.6172L28.0222 25.0162L28.1863 25.7777C28.2076 25.8763 28.0887 25.9448 28.0116 25.8784L27.4154 25.3661L26.729 25.7546C26.6401 25.805 26.5372 25.7151 26.5777 25.6225L26.8893 24.9068L26.3011 24.3854C26.225 24.318 26.2802 24.1941 26.3823 24.2032L27.1711 24.2732L27.494 23.5624C27.5358 23.4704 27.6728 23.4836 27.6955 23.5817L27.8716 24.3407L28.6592 24.4227C28.7608 24.4335 28.7905 24.5656 28.7024 24.6172Z" fill="#F5F5F5"/>
<path d="M37.8196 30.8932L37.569 31.6317L36.777 31.6377C36.6745 31.6385 36.6319 31.767 36.7144 31.8269L37.3515 32.2893L37.1126 33.0315C37.0816 33.1276 37.193 33.2071 37.2765 33.1484L37.9208 32.6957L38.5652 33.1484C38.6487 33.207 38.7599 33.1275 38.7291 33.0315L38.4902 32.2893L39.1274 31.8269C39.2099 31.7672 39.1674 31.6385 39.0648 31.6377L38.2728 31.6317L38.0222 30.8932C37.9897 30.7977 37.8521 30.7977 37.8196 30.8932Z" fill="#F5F5F5"/>
<path d="M36.2815 28.5426L36.4157 29.3098L35.7206 29.683C35.6307 29.7313 35.655 29.8644 35.7565 29.8788L36.5405 29.9903L36.6868 30.7554C36.7059 30.8544 36.8421 30.8728 36.8875 30.7824L37.2377 30.0842L38.0233 30.1838C38.1251 30.1967 38.185 30.075 38.1115 30.0047L37.5439 29.4616L37.8831 28.7582C37.9269 28.6671 37.8277 28.5735 37.737 28.6205L37.0361 28.983L36.46 28.4487C36.3854 28.3793 36.2642 28.4432 36.2815 28.5426Z" fill="#F5F5F5"/>
<path d="M34.3341 26.4852L34.7059 27.1725L34.1645 27.7406C34.0944 27.8142 34.1598 27.9331 34.2609 27.9155L35.0411 27.7805L35.4236 28.4622C35.4731 28.5503 35.6085 28.5259 35.6228 28.4262L35.7331 27.6554L36.511 27.5084C36.6117 27.4894 36.6298 27.3553 36.5376 27.3111L35.8258 26.9698L35.9239 26.1974C35.9367 26.0974 35.8125 26.0391 35.7413 26.1116L35.191 26.6713L34.474 26.3409C34.3809 26.2983 34.286 26.3961 34.3341 26.4852Z" fill="#F5F5F5"/>
<path d="M31.991 25.2087L32.5375 25.7722L32.1718 26.4627C32.1244 26.5521 32.2202 26.6493 32.3127 26.6056L33.0268 26.2689L33.5823 26.824C33.6541 26.8959 33.7778 26.8363 33.7641 26.7365L33.6589 25.9648L34.3677 25.6173C34.4595 25.5723 34.4402 25.4384 34.3394 25.4202L33.5603 25.2801L33.443 24.5102C33.4279 24.4106 33.2923 24.3872 33.2435 24.4759L32.8672 25.1608L32.0859 25.0326C31.9847 25.0162 31.9203 25.1358 31.991 25.2087Z" fill="#F5F5F5"/>
<path d="M29.2975 24.6172L29.9777 25.0162L29.8136 25.7777C29.7923 25.8763 29.9112 25.9448 29.9883 25.8784L30.5845 25.3661L31.2709 25.7546C31.3598 25.805 31.4626 25.7151 31.4222 25.6225L31.1106 24.9068L31.6987 24.3854C31.7748 24.318 31.7197 24.1941 31.6176 24.2032L30.8287 24.2732L30.5059 23.5624C30.4641 23.4704 30.3271 23.4836 30.3044 23.5817L30.1283 24.3407L29.3407 24.4227C29.2391 24.4335 29.2094 24.5656 29.2975 24.6172Z" fill="#F5F5F5"/>
</svg>
