<svg width="46" height="42" viewBox="0 0 46 42" fill="none" xmlns="http://www.w3.org/2000/svg">
<mask id="path-1-inside-1" fill="white">
<rect y="0.465637" width="46" height="31.8653" rx="2.2"/>
</mask>
<rect y="0.465637" width="46" height="31.8653" rx="2.2" stroke="#67DEE6" stroke-width="5" stroke-linecap="round" stroke-linejoin="round" mask="url(#path-1-inside-1)"/>
<path d="M8.60107 40.4656H37.4424" stroke="#67DEE6" stroke-width="2.5" stroke-linecap="round" stroke-linejoin="round"/>
<path d="M28.8589 31.3104L28.8589 40.4657" stroke="#67DEE6" stroke-width="2.5" stroke-linecap="round" stroke-linejoin="round"/>
<path d="M17.1841 31.3104L17.1841 40.4657" stroke="#67DEE6" stroke-width="2.5" stroke-linecap="round" stroke-linejoin="round"/>
<path d="M17.7722 21.8983C17.5802 21.8983 17.3882 21.8314 17.2422 21.6966C16.9492 21.428 16.9492 20.9926 17.2422 20.724L19.9612 18.2316L17.2412 15.7383C16.9482 15.4697 16.9482 15.0343 17.2412 14.7657C17.5342 14.4971 18.0092 14.4971 18.3022 14.7657L21.5522 17.7449C21.8452 18.0135 21.8452 18.4489 21.5522 18.7175L18.3022 21.6966C18.1562 21.8314 17.9642 21.8983 17.7722 21.8983Z" fill="#67DEE6"/>
<path d="M28.2722 21.8983H23.7722C23.3582 21.8983 23.0222 21.5903 23.0222 21.2108C23.0222 20.8313 23.3582 20.5233 23.7722 20.5233H28.2722C28.6862 20.5233 29.0222 20.8313 29.0222 21.2108C29.0222 21.5903 28.6862 21.8983 28.2722 21.8983Z" fill="#67DEE6"/>
<path d="M32.25 26.4816H13.75C12.233 26.4816 11 25.3514 11 23.9608V8.83577C11 7.44519 12.233 6.31494 13.75 6.31494H32.25C33.767 6.31494 35 7.44519 35 8.83577V23.9608C35 25.3514 33.767 26.4816 32.25 26.4816ZM13.75 7.68994C13.061 7.68994 12.5 8.20419 12.5 8.83577V23.9608C12.5 24.5924 13.061 25.1066 13.75 25.1066H32.25C32.939 25.1066 33.5 24.5924 33.5 23.9608V8.83577C33.5 8.20419 32.939 7.68994 32.25 7.68994H13.75Z" fill="#67DEE6"/>
<path d="M34.25 10.8983H11.75C11.336 10.8983 11 10.5903 11 10.2108C11 9.83125 11.336 9.52325 11.75 9.52325H34.25C34.664 9.52325 35 9.83125 35 10.2108C35 10.5903 34.664 10.8983 34.25 10.8983Z" fill="#67DEE6"/>
</svg>
