<svg width="48" height="40" viewBox="0 0 48 40" fill="none" xmlns="http://www.w3.org/2000/svg">
<g>
	<path d="M45.9424 0.933143C44.5532 -0.224652 42.3578 -0.316754 40.836 0.719176L27.4054 9.86163H4.69191C2.6218 9.86163 0.937622 11.2647 0.937622 12.9893V31.8459C0.937622 33.5705 2.6218 34.9736 4.69191 34.9736H15.3617V37.6559H12.9967C12.2202 37.6559 11.5906 38.1806 11.5906 38.8277C11.5906 39.4748 12.2202 39.9995 12.9967 39.9995H28.0436C28.8201 39.9995 29.4497 39.4748 29.4497 38.8277C29.4497 38.1806 28.8201 37.6559 28.0436 37.6559H25.6787V34.9736H36.3484C38.4186 34.9736 40.1028 33.5705 40.1028 31.8459V11.414L46.2003 5.18709C47.4421 3.91915 47.3312 2.09031 45.9424 0.933143ZM26.4995 14.5516C26.5427 13.8455 26.9288 13.2107 27.5884 12.7631L29.9279 11.1705L33.6632 14.2833L31.7477 16.2395C31.2113 16.7859 30.4499 17.1063 29.6039 17.1414C28.757 17.177 27.9617 16.9211 27.3627 16.422C26.7628 15.922 26.4562 15.2577 26.4995 14.5516ZM25.3703 22.1121C24.7472 22.6314 23.7094 22.8704 22.286 22.8228C21.2072 22.7867 20.2833 22.8499 19.5005 22.9674C19.6415 22.3151 19.7173 21.5447 19.674 20.6461C19.6168 19.4599 19.9038 18.5952 20.5269 18.076C21.1737 17.5369 22.0338 17.24 22.9486 17.24C23.8634 17.24 24.7234 17.5369 25.3702 18.076C26.7056 19.1888 26.7056 20.9993 25.3703 22.1121ZM22.8664 37.656H18.1739V34.9737H22.8664V37.656ZM37.2905 31.8459C37.2905 32.2783 36.8679 32.6301 36.3484 32.6301H4.69191C4.17248 32.6301 3.74989 32.2783 3.74989 31.8459V30.8462H37.2905V31.8459ZM37.2905 28.5026H3.74989V12.9893C3.74989 12.557 4.17248 12.2052 4.69191 12.2052H24.507C24.0258 12.8746 23.7395 13.6382 23.6908 14.4322C23.6805 14.6001 23.6811 14.7677 23.6919 14.9342C23.4469 14.9101 23.1991 14.8964 22.9487 14.8964C21.2827 14.8964 19.7164 15.437 18.5384 16.4187C17.3374 17.4195 16.7742 18.8735 16.8642 20.7402C16.984 23.2248 15.9954 24.2222 15.9184 24.2959C15.3922 24.7549 15.3998 25.4824 15.9412 25.9336C16.2157 26.1624 16.5756 26.2768 16.9355 26.2768C17.2852 26.2768 17.6349 26.1688 17.9063 25.9527C17.9943 25.8888 19.1914 25.0648 22.1733 25.1645C24.414 25.2397 26.1581 24.7702 27.3591 23.7693C28.7623 22.5999 29.354 21.0074 29.1378 19.4801C29.2441 19.485 29.3507 19.4881 29.4577 19.4881C29.553 19.4881 29.6486 19.4862 29.7443 19.4822C31.3702 19.4145 32.8939 18.7735 33.9257 17.7223L37.2907 14.286V28.5026H37.2905ZM17.9296 25.9337C17.9296 25.9337 17.9227 25.9402 17.9079 25.9515C17.9152 25.9456 17.9224 25.9397 17.9296 25.9337ZM15.9411 24.2765C15.9339 24.2825 15.9268 24.2885 15.9198 24.2945C15.9334 24.2822 15.9411 24.2765 15.9411 24.2765ZM44.0214 3.70549L35.4503 12.4584L32.1168 9.68055L42.6151 2.53418C42.8006 2.40787 43.0244 2.34553 43.2474 2.34553C43.5037 2.34553 43.7589 2.42794 43.9537 2.59027C44.3179 2.89369 44.347 3.3731 44.0214 3.70549Z" fill="#67DEE6"/>
</g>
</svg>
