<svg width="49" height="48" viewBox="0 0 49 48" fill="none" xmlns="http://www.w3.org/2000/svg">
<path d="M48.7578 24C48.7578 31.9072 44.9335 38.9212 39.0343 43.294C36.5648 45.1239 33.7318 46.4914 30.6637 47.2673C28.7742 47.7463 26.7963 48 24.7578 48C22.7193 48 20.7405 47.7463 18.8509 47.2673C15.7828 46.4914 12.9498 45.1239 10.4803 43.293C4.58113 38.9201 0.757812 31.9063 0.757812 24C0.757812 10.7452 11.503 0 24.7578 0C38.0127 0 48.7578 10.7452 48.7578 24Z" fill="#5ADAFD"/>
<path d="M39.0589 37.5135C38.9462 36.7583 38.7973 35.9804 38.6132 35.185C38.4505 34.4866 38.2615 33.7744 38.047 33.0515C37.4828 31.153 36.7393 29.1802 35.8381 27.1857C35.4433 26.3139 35.0182 25.4381 34.5646 24.5634C34.1649 23.7924 33.7437 23.0205 33.2999 22.2534C32.8571 21.4854 32.4007 20.7351 31.9314 20.0034C31.4015 19.1737 30.8558 18.3684 30.2975 17.5906C29.022 15.8126 27.6849 14.1817 26.3223 12.7435C25.8041 12.1959 25.2819 11.6768 24.7579 11.1879C24.1613 10.6296 23.5618 10.1114 22.9632 9.63629C19.0556 6.53391 15.5575 5.60232 13.1115 7.01391C10.6655 8.42645 9.72309 11.9216 10.4558 16.8579C10.5675 17.6131 10.7174 18.3909 10.9026 19.1863C11.0632 19.8848 11.2522 20.597 11.4678 21.3199C12.0321 23.2183 12.7755 25.1922 13.6777 27.1856C14.0716 28.0575 14.4967 28.9322 14.9502 29.807C15.3499 30.5789 15.7721 31.3498 16.2149 32.1178C16.6577 32.8858 17.1142 33.6362 17.5834 34.3679C18.1143 35.1986 18.6599 36.0039 19.2173 36.7816C20.4928 38.5596 21.8299 40.1896 23.1925 41.6276C23.7108 42.1752 24.2338 42.6954 24.7579 43.1842C25.3544 43.7425 25.9539 44.2598 26.5515 44.7349C27.9886 45.8761 29.3698 46.7234 30.6638 47.2672C33.7319 46.4913 36.5649 45.1239 39.0344 43.2939C39.3791 41.7052 39.3919 39.7587 39.0589 37.5135ZM36.8587 42.9375C36.5736 44.1699 36.0495 45.0143 35.3002 45.4463C34.5518 45.8792 33.5585 45.9106 32.3486 45.5423C31.0379 45.1416 29.5078 44.2659 27.9229 43.0071C27.39 42.5839 26.8561 42.1235 26.3222 41.6288C25.7991 41.1429 25.2759 40.6237 24.7568 40.0741C23.8654 39.1308 22.9837 38.0982 22.1237 36.9904C21.5497 36.2508 20.9844 35.4779 20.4329 34.6756C19.6326 33.5128 18.8597 32.2884 18.125 31.0149C17.3893 29.7414 16.7153 28.4601 16.109 27.1856C15.6897 26.3069 15.3027 25.4312 14.9501 24.5643C14.4202 23.2654 13.9666 21.985 13.5953 20.7419C13.3798 20.017 13.1908 19.3059 13.033 18.6094C12.8704 17.9002 12.7382 17.2066 12.6382 16.5337C12.3405 14.5324 12.3473 12.7691 12.6559 11.4339C12.941 10.2016 13.466 9.35719 14.2144 8.92519C14.6189 8.69204 15.094 8.57448 15.6357 8.57448C16.0981 8.57448 16.6094 8.65969 17.1658 8.83013C18.4765 9.22979 20.0066 10.1065 21.5916 11.3644C22.1244 11.7876 22.6593 12.248 23.1922 12.7447C23.7163 13.2295 24.2385 13.7487 24.7567 14.2974C25.6491 15.2407 26.5307 16.2732 27.3918 17.3821C27.9658 18.1217 28.531 18.8946 29.0826 19.6969C29.8819 20.8597 30.6548 22.0841 31.3895 23.3566C32.1251 24.6301 32.7991 25.9114 33.4055 27.1858C33.8247 28.0655 34.2117 28.9413 34.5643 29.8082C35.0943 31.1071 35.5478 32.3865 35.9191 33.6295C36.1346 34.3544 36.3236 35.0656 36.4823 35.7621C36.644 36.4713 36.7763 37.1649 36.8762 37.8378C37.1741 39.8391 37.1673 41.6023 36.8587 42.9375Z" fill="#F2F2F2"/>
<path d="M40.8523 19.9651C40.1421 19.685 39.3937 19.4254 38.612 19.1863C37.9263 18.9776 37.2151 18.7847 36.4813 18.6094C34.5554 18.149 32.4748 17.8061 30.2972 17.5906C29.346 17.4955 28.3752 17.4261 27.3917 17.3819C26.5237 17.3418 25.6441 17.3212 24.7576 17.3212C23.8711 17.3212 22.9913 17.3417 22.1225 17.3819C21.138 17.426 20.1672 17.4966 19.216 17.5906C17.0384 17.8061 14.9588 18.149 13.0328 18.6094C12.2992 18.7847 11.588 18.9777 10.9022 19.1863C10.1205 19.4244 9.37209 19.685 8.66184 19.9651C4.02159 21.7969 1.46484 24.3615 1.46484 27.1856C1.46484 30.0098 4.02159 32.5744 8.66194 34.4072C9.37219 34.6873 10.1196 34.9469 10.9012 35.186C11.5869 35.3947 12.2981 35.5876 13.0319 35.762C14.9578 36.2233 17.0384 36.5652 19.2171 36.7817C20.1682 36.8757 21.139 36.9453 22.1235 36.9904C22.9914 37.0305 23.8711 37.0501 24.7576 37.0501C25.6441 37.0501 26.5228 37.0305 27.3908 36.9904C28.3752 36.9453 29.3451 36.8757 30.2972 36.7817C32.4748 36.5662 34.5564 36.2233 36.4823 35.762C37.216 35.5867 37.9272 35.3947 38.613 35.185C39.3937 34.947 40.1422 34.6874 40.8523 34.4072C45.4936 32.5744 48.0494 30.0099 48.0494 27.1856C48.0493 24.3615 45.4936 21.7969 40.8523 19.9651ZM44.4493 29.7894C43.4482 30.7249 41.924 31.6114 40.0421 32.3549C39.4084 32.6047 38.7422 32.8378 38.0467 33.0514C37.3639 33.262 36.6537 33.455 35.919 33.6294C34.6563 33.9301 33.3211 34.1769 31.9311 34.368C31.0043 34.4964 30.0532 34.5992 29.0824 34.6747C27.6747 34.7874 26.2279 34.8442 24.7575 34.8442C23.2871 34.8442 21.8403 34.7874 20.4326 34.6757C19.4618 34.5993 18.5097 34.4964 17.583 34.3681C16.193 34.177 14.8578 33.9302 13.5951 33.6294C12.8603 33.4551 12.1502 33.2621 11.4674 33.0515C10.7719 32.8379 10.1058 32.6048 9.47194 32.355C7.59019 31.6115 6.06591 30.725 5.06475 29.7894C4.14 28.9264 3.67078 28.0507 3.67078 27.1857C3.67078 26.3208 4.14 25.445 5.06475 24.582C6.06591 23.6465 7.59009 22.76 9.47194 22.0164C10.1057 21.7667 10.7719 21.5335 11.4674 21.32C12.1502 21.1093 12.8603 20.9164 13.5951 20.742C14.8578 20.4413 16.193 20.1944 17.583 20.0034C18.5097 19.875 19.4618 19.7722 20.4326 19.6958C21.8403 19.5841 23.2871 19.5273 24.7575 19.5273C26.2279 19.5273 27.6747 19.5841 29.0824 19.6968C30.0532 19.7723 31.0043 19.8751 31.9311 20.0034C33.3211 20.1945 34.6563 20.4414 35.919 20.7421C36.6537 20.9165 37.3639 21.1094 38.0467 21.3201C38.7422 21.5336 39.4083 21.7668 40.0421 22.0165C41.9239 22.7601 43.4482 23.6466 44.4493 24.5821C45.3741 25.4452 45.8433 26.3209 45.8433 27.1858C45.8433 28.0507 45.3741 28.9264 44.4493 29.7894Z" fill="#F2F2F2"/>
<path d="M36.4031 7.01391C33.957 5.60232 30.459 6.53391 26.5514 9.63629C25.9538 10.1114 25.3543 10.6296 24.7577 11.1879C24.2337 11.6768 23.7105 12.1969 23.1924 12.7445C21.8297 14.1825 20.4927 15.8125 19.2163 17.5905C18.6589 18.3683 18.1132 19.1736 17.5833 20.0033C17.1141 20.735 16.6576 21.4854 16.2149 22.2534C15.7721 23.0214 15.3499 23.7923 14.9502 24.5642C14.4966 25.439 14.0715 26.3147 13.6777 27.1855C12.7755 29.18 12.032 31.1529 11.4677 33.0513C11.2522 33.7752 11.0632 34.4874 10.9015 35.1858C10.7174 35.9813 10.5675 36.7581 10.4558 37.5133C10.1227 39.7576 10.1355 41.704 10.4803 43.2929C12.9498 45.1238 15.7828 46.4913 18.8509 47.2672C20.145 46.7235 21.5262 45.8761 22.9633 44.7349C23.5618 44.2598 24.1613 43.7416 24.7579 43.1842C25.282 42.6954 25.8042 42.1762 26.3223 41.6286C27.684 40.1905 29.022 38.5595 30.2975 36.7815C30.8549 36.0037 31.4006 35.1984 31.9315 34.3678C32.4007 33.6361 32.8572 32.8857 33.3 32.1177C33.7437 31.3507 34.1649 30.5798 34.5646 29.8078C35.0182 28.933 35.4434 28.0573 35.8381 27.1854C36.7394 25.1919 37.4829 23.2181 38.0471 21.3197C38.2616 20.5968 38.4507 19.8846 38.6123 19.1861C38.7975 18.3907 38.9463 17.6129 39.059 16.8577C39.7915 11.9216 38.8492 8.42645 36.4031 7.01391ZM35.9192 20.7419C35.548 21.985 35.0944 23.2644 34.5645 24.5633C34.2118 25.4302 33.8249 26.306 33.4056 27.1856C32.7992 28.4601 32.1253 29.7414 31.3896 31.0149C30.6549 32.2873 29.882 33.5118 29.0827 34.6746C28.5302 35.4778 27.965 36.2507 27.391 36.9903C26.5309 38.0982 25.6493 39.1307 24.7569 40.074C24.2387 40.6225 23.7165 41.1417 23.1925 41.6276C22.6596 42.1233 22.1248 42.5837 21.5918 43.0069C20.0069 44.2657 18.4767 45.1414 17.166 45.5421C15.9563 45.9104 14.9629 45.879 14.2145 45.4461C13.4661 45.0141 12.941 44.1697 12.656 42.9373C12.3475 41.6021 12.3405 39.8389 12.6384 37.8376C12.7383 37.1647 12.8705 36.4711 13.0321 35.7619C13.1909 35.0654 13.3799 34.3542 13.5954 33.6294C13.9666 32.3862 14.4202 31.1059 14.9502 29.807C15.3029 28.9401 15.6898 28.0643 16.109 27.1856C16.7154 25.9112 17.3894 24.6299 18.125 23.3564C18.8597 22.0829 19.6326 20.8584 20.433 19.6957C20.9845 18.8934 21.5487 18.1205 22.1227 17.3819C22.9838 16.273 23.8654 15.2406 24.7568 14.2972C25.276 13.7476 25.7991 13.2284 26.3221 12.7435C26.856 12.2479 27.3899 11.7875 27.9228 11.3643C29.5078 10.1065 31.038 9.22979 32.3486 8.83004C32.905 8.6596 33.4163 8.57438 33.8787 8.57438C34.4204 8.57438 34.8964 8.69194 35.3 8.9251C36.0494 9.3571 36.5735 10.2015 36.8585 11.4339C37.167 12.769 37.174 14.5323 36.8761 16.5336C36.7762 17.2065 36.644 17.9001 36.4814 18.6093C36.3238 19.3058 36.1347 20.0169 35.9192 20.7419Z" fill="#F2F2F2"/>
<path d="M24.7576 31.5634C27.1754 31.5634 29.1354 29.6034 29.1354 27.1856C29.1354 24.7678 27.1754 22.8079 24.7576 22.8079C22.3399 22.8079 20.3799 24.7678 20.3799 27.1856C20.3799 29.6034 22.3399 31.5634 24.7576 31.5634Z" fill="#F2F2F2"/>
</svg>
