<svg width="616" height="407" viewBox="0 0 616 407" fill="none" xmlns="http://www.w3.org/2000/svg">
<path d="M16.5129 351.259C16.5129 345.459 17.6796 340.392 20.0129 336.059C22.4129 331.726 25.7129 328.392 29.9129 326.059C34.1796 323.726 39.0462 322.559 44.5129 322.559C51.5129 322.559 57.3462 324.392 62.0129 328.059C66.7462 331.726 69.8462 336.892 71.3129 343.559H53.1129C51.5796 339.292 48.6129 337.159 44.2129 337.159C41.0796 337.159 38.5796 338.392 36.7129 340.859C34.8462 343.259 33.9129 346.726 33.9129 351.259C33.9129 355.792 34.8462 359.292 36.7129 361.759C38.5796 364.159 41.0796 365.359 44.2129 365.359C48.6129 365.359 51.5796 363.226 53.1129 358.959H71.3129C69.8462 365.492 66.7462 370.626 62.0129 374.359C57.2796 378.092 51.4462 379.959 44.5129 379.959C39.0462 379.959 34.1796 378.792 29.9129 376.459C25.7129 374.126 22.4129 370.792 20.0129 366.459C17.6796 362.126 16.5129 357.059 16.5129 351.259ZM105.86 379.959C100.393 379.959 95.4598 378.792 91.0598 376.459C86.7264 374.126 83.2931 370.792 80.7598 366.459C78.2931 362.126 77.0598 357.059 77.0598 351.259C77.0598 345.526 78.3264 340.492 80.8598 336.159C83.3931 331.759 86.8598 328.392 91.2598 326.059C95.6598 323.726 100.593 322.559 106.06 322.559C111.526 322.559 116.46 323.726 120.86 326.059C125.26 328.392 128.726 331.759 131.26 336.159C133.793 340.492 135.06 345.526 135.06 351.259C135.06 356.992 133.76 362.059 131.16 366.459C128.626 370.792 125.126 374.126 120.66 376.459C116.26 378.792 111.326 379.959 105.86 379.959ZM105.86 365.159C109.126 365.159 111.893 363.959 114.16 361.559C116.493 359.159 117.66 355.726 117.66 351.259C117.66 346.792 116.526 343.359 114.26 340.959C112.06 338.559 109.326 337.359 106.06 337.359C102.726 337.359 99.9598 338.559 97.7598 340.959C95.5598 343.292 94.4598 346.726 94.4598 351.259C94.4598 355.726 95.5264 359.159 97.6598 361.559C99.8598 363.959 102.593 365.159 105.86 365.159ZM178.132 322.759C184.665 322.759 189.865 324.892 193.732 329.159C197.665 333.359 199.632 339.159 199.632 346.559V379.159H182.632V348.859C182.632 345.126 181.665 342.226 179.732 340.159C177.798 338.092 175.198 337.059 171.932 337.059C168.665 337.059 166.065 338.092 164.132 340.159C162.198 342.226 161.232 345.126 161.232 348.859V379.159H144.132V323.359H161.232V330.759C162.965 328.292 165.298 326.359 168.232 324.959C171.165 323.492 174.465 322.759 178.132 322.759ZM264.114 350.359C264.114 351.959 264.014 353.626 263.814 355.359H225.114C225.381 358.826 226.481 361.492 228.414 363.359C230.414 365.159 232.848 366.059 235.714 366.059C239.981 366.059 242.948 364.259 244.614 360.659H262.814C261.881 364.326 260.181 367.626 257.714 370.559C255.314 373.492 252.281 375.792 248.614 377.459C244.948 379.126 240.848 379.959 236.314 379.959C230.848 379.959 225.981 378.792 221.714 376.459C217.448 374.126 214.114 370.792 211.714 366.459C209.314 362.126 208.114 357.059 208.114 351.259C208.114 345.459 209.281 340.392 211.614 336.059C214.014 331.726 217.348 328.392 221.614 326.059C225.881 323.726 230.781 322.559 236.314 322.559C241.714 322.559 246.514 323.692 250.714 325.959C254.914 328.226 258.181 331.459 260.514 335.659C262.914 339.859 264.114 344.759 264.114 350.359ZM246.614 345.859C246.614 342.926 245.614 340.592 243.614 338.859C241.614 337.126 239.114 336.259 236.114 336.259C233.248 336.259 230.814 337.092 228.814 338.759C226.881 340.426 225.681 342.792 225.214 345.859H246.614ZM306.136 379.159L295.436 363.659L286.436 379.159H267.936L286.336 350.659L267.436 323.359H286.636L297.336 338.759L306.336 323.359H324.836L306.136 351.459L325.336 379.159H306.136ZM349.025 331.259C350.691 328.659 352.991 326.559 355.925 324.959C358.858 323.359 362.291 322.559 366.225 322.559C370.825 322.559 374.991 323.726 378.725 326.059C382.458 328.392 385.391 331.726 387.525 336.059C389.725 340.392 390.825 345.426 390.825 351.159C390.825 356.892 389.725 361.959 387.525 366.359C385.391 370.692 382.458 374.059 378.725 376.459C374.991 378.792 370.825 379.959 366.225 379.959C362.358 379.959 358.925 379.159 355.925 377.559C352.991 375.959 350.691 373.892 349.025 371.359V405.759H331.925V323.359H349.025V331.259ZM373.425 351.159C373.425 346.892 372.225 343.559 369.825 341.159C367.491 338.692 364.591 337.459 361.125 337.459C357.725 337.459 354.825 338.692 352.425 341.159C350.091 343.626 348.925 346.992 348.925 351.259C348.925 355.526 350.091 358.892 352.425 361.359C354.825 363.826 357.725 365.059 361.125 365.059C364.525 365.059 367.425 363.826 369.825 361.359C372.225 358.826 373.425 355.426 373.425 351.159ZM452.396 350.359C452.396 351.959 452.296 353.626 452.096 355.359H413.396C413.662 358.826 414.762 361.492 416.696 363.359C418.696 365.159 421.129 366.059 423.996 366.059C428.262 366.059 431.229 364.259 432.896 360.659H451.096C450.162 364.326 448.462 367.626 445.996 370.559C443.596 373.492 440.562 375.792 436.896 377.459C433.229 379.126 429.129 379.959 424.596 379.959C419.129 379.959 414.262 378.792 409.996 376.459C405.729 374.126 402.396 370.792 399.996 366.459C397.596 362.126 396.396 357.059 396.396 351.259C396.396 345.459 397.562 340.392 399.896 336.059C402.296 331.726 405.629 328.392 409.896 326.059C414.162 323.726 419.062 322.559 424.596 322.559C429.996 322.559 434.796 323.692 438.996 325.959C443.196 328.226 446.462 331.459 448.796 335.659C451.196 339.859 452.396 344.759 452.396 350.359ZM434.896 345.859C434.896 342.926 433.896 340.592 431.896 338.859C429.896 337.126 427.396 336.259 424.396 336.259C421.529 336.259 419.096 337.092 417.096 338.759C415.162 340.426 413.962 342.792 413.496 345.859H434.896ZM478.517 332.659C480.517 329.592 483.017 327.192 486.017 325.459C489.017 323.659 492.35 322.759 496.017 322.759V340.859H491.317C487.05 340.859 483.85 341.792 481.717 343.659C479.583 345.459 478.517 348.659 478.517 353.259V379.159H461.417V323.359H478.517V332.659ZM535.29 364.659V379.159H526.59C520.39 379.159 515.557 377.659 512.09 374.659C508.624 371.592 506.89 366.626 506.89 359.759V337.559H500.09V323.359H506.89V309.759H523.99V323.359H535.19V337.559H523.99V359.959C523.99 361.626 524.39 362.826 525.19 363.559C525.99 364.292 527.324 364.659 529.19 364.659H535.29ZM570.215 379.959C564.749 379.959 559.815 378.792 555.415 376.459C551.082 374.126 547.649 370.792 545.115 366.459C542.649 362.126 541.415 357.059 541.415 351.259C541.415 345.526 542.682 340.492 545.215 336.159C547.749 331.759 551.215 328.392 555.615 326.059C560.015 323.726 564.949 322.559 570.415 322.559C575.882 322.559 580.815 323.726 585.215 326.059C589.615 328.392 593.082 331.759 595.615 336.159C598.149 340.492 599.415 345.526 599.415 351.259C599.415 356.992 598.115 362.059 595.515 366.459C592.982 370.792 589.482 374.126 585.015 376.459C580.615 378.792 575.682 379.959 570.215 379.959ZM570.215 365.159C573.482 365.159 576.249 363.959 578.515 361.559C580.849 359.159 582.015 355.726 582.015 351.259C582.015 346.792 580.882 343.359 578.615 340.959C576.415 338.559 573.682 337.359 570.415 337.359C567.082 337.359 564.315 338.559 562.115 340.959C559.915 343.292 558.815 346.726 558.815 351.259C558.815 355.726 559.882 359.159 562.015 361.559C564.215 363.959 566.949 365.159 570.215 365.159Z" fill="black"/>
<path d="M307.994 126.926C277.09 126.926 247.451 140.108 225.597 163.571C203.744 187.035 191.467 218.858 191.467 252.041H255.37C255.369 250.632 255.418 249.224 255.516 247.819C255.614 246.414 255.761 245.013 255.956 243.62C256.152 242.227 256.396 240.842 256.688 239.469C256.98 238.095 257.32 236.734 257.707 235.387C258.094 234.041 258.527 232.71 259.007 231.399C259.486 230.087 260.011 228.795 260.581 227.525C261.15 226.256 261.763 225.01 262.419 223.79C263.075 222.57 263.774 221.376 264.513 220.213C265.252 219.048 266.032 217.914 266.85 216.812C267.668 215.711 268.525 214.642 269.417 213.61C270.31 212.577 271.238 211.58 272.199 210.622C273.161 209.663 274.157 208.744 275.183 207.865C276.209 206.987 277.265 206.15 278.349 205.356C279.433 204.562 280.545 203.812 281.681 203.108C282.818 202.403 283.978 201.745 285.161 201.134C286.343 200.522 287.546 199.959 288.768 199.444C289.99 198.929 291.229 198.464 292.483 198.048C293.736 197.633 295.004 197.268 296.283 196.955C297.563 196.641 298.853 196.379 300.151 196.169C301.448 195.959 302.753 195.801 304.061 195.695C305.37 195.59 306.681 195.537 307.994 195.537C308.445 195.531 308.897 195.531 309.349 195.537C309.8 195.549 310.252 195.568 310.703 195.594C311.154 195.619 311.605 195.65 312.055 195.688C312.505 195.726 312.955 195.77 313.404 195.82C313.854 195.871 314.303 195.927 314.751 195.99C315.199 196.052 315.646 196.12 316.092 196.194C316.539 196.269 316.984 196.349 317.428 196.436C317.873 196.523 318.316 196.617 318.759 196.716C319.201 196.816 319.642 196.922 320.081 197.033C320.521 197.145 320.959 197.262 321.396 197.385C321.833 197.509 322.268 197.638 322.701 197.774C323.135 197.91 323.567 198.051 323.998 198.199C324.428 198.346 324.856 198.499 325.283 198.659C325.71 198.818 326.135 198.983 326.557 199.154C326.98 199.325 327.401 199.503 327.819 199.686C328.238 199.868 328.654 200.057 329.068 200.251C329.482 200.445 329.893 200.645 330.302 200.85C330.711 201.056 331.118 201.267 331.522 201.484C331.926 201.701 332.327 201.924 332.726 202.151C333.125 202.38 333.521 202.613 333.914 202.852C334.307 203.091 334.697 203.335 335.085 203.585C335.472 203.834 335.856 204.089 336.237 204.349C336.618 204.61 336.997 204.875 337.372 205.146C337.746 205.417 338.118 205.693 338.486 205.974C338.854 206.255 339.219 206.541 339.58 206.832C339.941 207.123 340.299 207.42 340.653 207.721C341.007 208.022 341.358 208.327 341.705 208.638C342.052 208.949 342.395 209.264 342.735 209.584C343.074 209.904 343.409 210.229 343.741 210.559C344.072 210.888 344.4 211.222 344.723 211.56C345.047 211.899 345.366 212.242 345.681 212.59C345.996 212.937 346.307 213.289 346.614 213.645C346.921 214 347.224 214.36 347.522 214.725C347.821 215.089 348.114 215.457 348.403 215.83C348.693 216.202 348.978 216.579 349.258 216.959C349.538 217.34 349.814 217.724 350.085 218.112C350.356 218.5 350.623 218.892 350.884 219.287C351.146 219.682 351.403 220.081 351.655 220.483C351.908 220.885 352.155 221.292 352.397 221.701C352.64 222.11 352.877 222.523 353.11 222.938C353.342 223.354 353.57 223.773 353.792 224.195C354.015 224.618 354.232 225.043 354.445 225.471C354.657 225.899 354.864 226.33 355.066 226.764C355.268 227.197 355.465 227.634 355.657 228.073C355.848 228.512 356.034 228.954 356.215 229.399C356.395 229.843 356.571 230.29 356.741 230.74C356.911 231.189 357.076 231.64 357.235 232.094C357.395 232.548 357.549 233.004 357.697 233.462C357.845 233.92 357.988 234.38 358.126 234.842C358.263 235.304 358.395 235.769 358.522 236.235C358.648 236.7 358.769 237.167 358.884 237.636C358.999 238.105 359.108 238.576 359.211 239.048C359.315 239.52 359.413 239.993 359.506 240.468C359.598 240.942 359.685 241.419 359.766 241.896C359.846 242.373 359.921 242.851 359.99 243.33C360.06 243.81 360.124 244.29 360.183 244.771C360.241 245.252 360.293 245.734 360.339 246.216C360.386 246.699 360.427 247.182 360.463 247.665C360.498 248.149 360.527 248.633 360.551 249.118C360.574 249.602 360.591 250.087 360.602 250.572C360.615 251.056 360.623 251.541 360.625 252.026H424.529C424.528 218.843 412.251 187.019 390.398 163.555C368.544 140.092 338.905 126.91 308 126.91L307.994 126.926Z" fill="#31C5C7"/>
<path d="M424.525 70.0293H360.621C360.622 71.4385 360.573 72.8473 360.475 74.2526C360.377 75.6576 360.23 77.0581 360.035 78.4513C359.839 79.8444 359.595 81.2292 359.303 82.6027C359.011 83.9764 358.672 85.338 358.285 86.6844C357.898 88.0308 357.464 89.3611 356.985 90.6727C356.506 91.9845 355.981 93.2768 355.411 94.5464C354.842 95.8159 354.229 97.0618 353.572 98.2821C352.916 99.502 352.218 100.695 351.479 101.859C350.739 103.023 349.96 104.158 349.141 105.259C348.323 106.361 347.467 107.429 346.574 108.462C345.682 109.495 344.754 110.491 343.791 111.45C342.83 112.408 341.835 113.327 340.809 114.206C339.783 115.084 338.727 115.922 337.642 116.716C336.558 117.509 335.446 118.259 334.31 118.964C333.173 119.668 332.013 120.327 330.83 120.938C329.648 121.549 328.445 122.113 327.224 122.628C326.002 123.142 324.763 123.608 323.509 124.023C322.255 124.439 320.987 124.804 319.708 125.117C318.429 125.43 317.139 125.692 315.841 125.902C314.544 126.112 313.239 126.27 311.931 126.376C310.622 126.481 309.31 126.534 307.997 126.534C306.685 126.534 305.374 126.481 304.065 126.376C302.756 126.27 301.452 126.112 300.154 125.902C298.857 125.692 297.567 125.43 296.287 125.117C295.008 124.803 293.74 124.439 292.486 124.023C291.233 123.608 289.994 123.142 288.772 122.628C287.55 122.113 286.347 121.549 285.164 120.938C283.982 120.327 282.822 119.668 281.685 118.964C280.549 118.259 279.437 117.509 278.353 116.716C277.269 115.922 276.213 115.084 275.187 114.206C274.161 113.327 273.165 112.408 272.203 111.45C271.242 110.491 270.314 109.495 269.421 108.462C268.529 107.429 267.672 106.361 266.853 105.259C266.035 104.158 265.256 103.023 264.517 101.859C263.778 100.695 263.079 99.502 262.423 98.2821C261.767 97.0618 261.154 95.8159 260.585 94.5464C260.015 93.2768 259.49 91.9845 259.011 90.6727C258.531 89.3611 258.098 88.0308 257.711 86.6844C257.324 85.338 256.984 83.9764 256.692 82.6027C256.4 81.2292 256.156 79.8445 255.96 78.4513C255.765 77.0581 255.618 75.6576 255.52 74.2526C255.421 72.8473 255.372 71.4386 255.371 70.0293H191.468C191.468 103.212 203.745 135.037 225.598 158.501C247.451 181.965 277.091 195.147 307.996 195.147C323.299 195.147 338.452 191.911 352.59 185.623C366.728 179.336 379.574 170.12 390.395 158.501C401.215 146.883 409.799 133.09 415.655 117.91C421.511 102.73 424.525 86.46 424.525 70.0293H424.525Z" fill="#131D40"/>
<path d="M228.11 161.033C229.108 162.073 230.123 163.094 231.155 164.096C233.067 165.896 235.033 167.628 237.051 169.29C239.068 170.952 241.135 172.542 243.249 174.059C245.363 175.576 247.522 177.018 249.724 178.383C251.925 179.748 254.168 181.035 256.448 182.242C258.729 183.45 261.045 184.576 263.395 185.621C265.743 186.666 268.123 187.628 270.531 188.506C272.939 189.383 275.373 190.175 277.829 190.882C280.284 191.588 282.761 192.208 285.255 192.741C287.748 193.274 290.257 193.719 292.778 194.075C295.299 194.431 297.83 194.699 300.367 194.878C302.904 195.056 305.446 195.146 307.988 195.146C308.848 195.144 309.707 195.131 310.566 195.108C311.425 195.088 312.283 195.058 313.142 195.017C314.001 194.976 314.859 194.924 315.717 194.862C316.574 194.801 317.431 194.729 318.287 194.647C319.142 194.565 319.997 194.473 320.851 194.371C321.706 194.269 322.559 194.157 323.411 194.035C324.263 193.913 325.113 193.78 325.962 193.638C326.811 193.496 327.659 193.343 328.504 193.18C329.351 193.018 330.195 192.845 331.038 192.663C331.88 192.48 332.72 192.288 333.558 192.086C334.397 191.883 335.234 191.671 336.068 191.448C336.902 191.226 337.733 190.994 338.562 190.752C339.392 190.51 340.218 190.258 341.043 189.996C341.867 189.734 342.688 189.463 343.507 189.182C344.325 188.901 345.141 188.61 345.953 188.309C346.766 188.008 347.575 187.698 348.381 187.378C349.187 187.058 349.99 186.729 350.789 186.391C351.589 186.052 352.384 185.703 353.176 185.345C353.968 184.987 354.757 184.619 355.541 184.243C356.326 183.866 357.106 183.481 357.883 183.086C358.66 182.691 359.432 182.287 360.201 181.873C360.969 181.46 361.733 181.038 362.492 180.606C363.252 180.175 364.007 179.734 364.757 179.284C365.508 178.835 366.254 178.376 366.995 177.909C367.736 177.441 368.472 176.965 369.203 176.48C369.935 175.996 370.661 175.502 371.382 175C372.104 174.498 372.82 173.988 373.53 173.469C374.241 172.95 374.946 172.423 375.645 171.887C376.345 171.351 377.039 170.807 377.728 170.255C378.416 169.703 379.099 169.142 379.776 168.574C380.453 168.005 381.124 167.429 381.789 166.844C382.454 166.26 383.113 165.668 383.766 165.068C384.419 164.468 385.065 163.86 385.706 163.245C386.346 162.63 386.979 162.006 387.607 161.376C387.708 161.273 387.809 161.169 387.91 161.066C366.302 139.157 337.714 126.941 307.994 126.917C278.293 126.941 249.722 139.142 228.118 161.027L228.11 161.033Z" fill="#278D9A"/>
<path d="M307.997 70.0293C327.238 70.0293 342.836 54.4311 342.836 35.19C342.836 15.9488 327.238 0.350677 307.997 0.350677C288.756 0.350677 273.157 15.9488 273.157 35.19C273.157 54.4311 288.756 70.0293 307.997 70.0293Z" fill="#31C5C7"/>
</svg>
